M48
;Layer_Color=9474304
;FILE_FORMAT=2:4
INCH,LZ
;TYPE=PLATED
T01F00S00C0.0300
T02F00S00C0.0394
T03F00S00C0.0402
T04F00S00C0.1181
;TYPE=NON_PLATED
T05F00S00C0.1181
%
T01
X028864Y029391
Y030391
Y031391
Y032391
T02
X010664Y037081
X011664
X012664
X013664
X014664
X015664
X016664
T03
X013844Y039071
X014844
X015844
X016844
X017844
X018844
X019844
X020844
X021844
X022844
X023844
X024844
X025844
X026844
X027844
Y049071
X026844
X025844
X024844
X023844
X022844
X021844
X020844
X019844
X018844
X017844
X016844
X015844
X014844
X013844
T04
X029604Y023031
X009754
X029624Y050531
X009754Y050621
T05
X01071Y039236
X029194
Y048886
X01071
M30
