G04*
G04 #@! TF.GenerationSoftware,Altium Limited,Altium Designer,24.1.2 (44)*
G04*
G04 Layer_Physical_Order=2*
G04 Layer_Color=16711680*
%FSTAX44Y44*%
%MOMM*%
G71*
G04*
G04 #@! TF.SameCoordinates,792270A9-2E5B-46A5-852F-00C2283ADDF4*
G04*
G04*
G04 #@! TF.FilePolarity,Positive*
G04*
G01*
G75*
%ADD18C,2.0000*%
%ADD19R,2.0000X2.0000*%
%ADD20C,2.0000*%
%ADD21C,1.5240*%
%ADD22R,2.0000X2.0000*%
%ADD23C,3.0000*%
D18*
X00171704Y00290068D02*
X00198628Y00263144D01*
X00171704Y00290068D02*
Y00331216D01*
X00198628Y00263144D02*
X00506984D01*
X00157988Y003175D02*
X00171704Y00331216D01*
Y0040767D01*
X00059436Y003175D02*
X00157988D01*
X00044704Y00332232D02*
X00059436Y003175D01*
X00044704Y00332232D02*
Y0040767D01*
X00171704D02*
X00197104D01*
X00044704Y00420338D02*
X0005642Y00432054D01*
X00069818D01*
X00044704Y0040767D02*
Y00420338D01*
X00069818Y00432054D02*
X00081534Y0044377D01*
Y00497332D01*
X00097282Y0051308D01*
X00150876Y00458216D02*
Y00501364D01*
X0013916Y0051308D02*
X00150876Y00501364D01*
X00097282Y0051308D02*
X0013916D01*
D19*
X00044704Y0040767D02*
D03*
D20*
X00070104D02*
D03*
X00095504D02*
D03*
X00120904D02*
D03*
X00146304D02*
D03*
X00171704D02*
D03*
X00197104D02*
D03*
X00150876Y00458216D02*
D03*
X00176276D02*
D03*
X00201676D02*
D03*
X00227076D02*
D03*
X00252476D02*
D03*
X00277876D02*
D03*
X00303276D02*
D03*
X00328676D02*
D03*
X00354076D02*
D03*
X00379476D02*
D03*
X00404876D02*
D03*
X00430276D02*
D03*
X00455676D02*
D03*
X00481076D02*
D03*
X00125476Y00712216D02*
D03*
X00150876D02*
D03*
X00176276D02*
D03*
X00201676D02*
D03*
X00227076D02*
D03*
X00252476D02*
D03*
X00277876D02*
D03*
X00303276D02*
D03*
X00328676D02*
D03*
X00354076D02*
D03*
X00379476D02*
D03*
X00404876D02*
D03*
X00430276D02*
D03*
X00455676D02*
D03*
X00481076D02*
D03*
D21*
X00506984Y00212344D02*
D03*
Y00237744D02*
D03*
Y00263144D02*
D03*
Y00288544D02*
D03*
D22*
X00125476Y00458216D02*
D03*
D23*
X00515376Y00462416D02*
D03*
Y00707516D02*
D03*
X00045876D02*
D03*
Y00462416D02*
D03*
X0052578Y000508D02*
D03*
X0002159D02*
D03*
X00526288Y007493D02*
D03*
X0002159Y00751586D02*
D03*
M02*
