G04*
G04 #@! TF.GenerationSoftware,Altium Limited,Altium Designer,24.1.2 (44)*
G04*
G04 Layer_Color=2752767*
%FSTAX44Y44*%
%MOMM*%
G71*
G04*
G04 #@! TF.SameCoordinates,792270A9-2E5B-46A5-852F-00C2283ADDF4*
G04*
G04*
G04 #@! TF.FilePolarity,Positive*
G04*
G01*
G75*
%ADD12C,0.1270*%
%ADD24C,0.1693*%
D12*
X00039624Y0040259D02*
Y0041275D01*
X00049784D01*
Y0040259D01*
X00039624D01*
X00065024D02*
Y0041275D01*
X00075184D01*
Y0040259D01*
X00065024D01*
X00090424D02*
Y0041275D01*
X00100584D01*
Y0040259D01*
X00090424D01*
X00115824D02*
Y0041275D01*
X00125984D01*
Y0040259D01*
X00115824D01*
X00141224D02*
Y0041275D01*
X00151384D01*
Y0040259D01*
X00141224D01*
X00166624D02*
Y0041275D01*
X00176784D01*
Y0040259D01*
X00166624D01*
X00192024D02*
Y0041275D01*
X00202184D01*
Y0040259D01*
X00192024D01*
X00501904Y00207264D02*
X00504444Y00212344D01*
X00501904Y00217424D01*
X00506984Y00214884D01*
X00512064Y00217424D01*
X00509524Y00212344D01*
X00512064Y00207264D01*
X00506984Y00209804D01*
X00501904Y00207264D01*
Y00232664D02*
X00504444Y00237744D01*
X00501904Y00242824D01*
X00506984Y00240284D01*
X00512064Y00242824D01*
X00509524Y00237744D01*
X00512064Y00232664D01*
X00506984Y00235204D01*
X00501904Y00232664D01*
Y00258064D02*
X00504444Y00263144D01*
X00501904Y00268224D01*
X00506984Y00265684D01*
X00512064Y00268224D01*
X00509524Y00263144D01*
X00512064Y00258064D01*
X00506984Y00260604D01*
X00501904Y00258064D01*
Y00283464D02*
X00504444Y00288544D01*
X00501904Y00293624D01*
X00506984Y00291084D01*
X00512064Y00293624D01*
X00509524Y00288544D01*
X00512064Y00283464D01*
X00506984Y00286004D01*
X00501904Y00283464D01*
X00515376Y00457336D02*
X00510296Y00467496D01*
X00520456D01*
X00515376Y00457336D01*
Y00702436D02*
X00510296Y00712596D01*
X00520456D01*
X00515376Y00702436D01*
X00045876D02*
X00040796Y00712596D01*
X00050956D01*
X00045876Y00702436D01*
Y00457336D02*
X00040796Y00467496D01*
X00050956D01*
X00045876Y00457336D01*
X0052578Y0004572D02*
X0052832Y0004826D01*
X0053086D01*
X0052832Y000508D01*
X0053086Y0005334D01*
X0052832D01*
X0052578Y0005588D01*
X0052324Y0005334D01*
X005207D01*
X0052324Y000508D01*
X005207Y0004826D01*
X0052324D01*
X0052578Y0004572D01*
X0002159D02*
X0002413Y0004826D01*
X0002667D01*
X0002413Y000508D01*
X0002667Y0005334D01*
X0002413D01*
X0002159Y0005588D01*
X0001905Y0005334D01*
X0001651D01*
X0001905Y000508D01*
X0001651Y0004826D01*
X0001905D01*
X0002159Y0004572D01*
X00526288Y0074422D02*
X00528828Y0074676D01*
X00531368D01*
X00528828Y007493D01*
X00531368Y0075184D01*
X00528828D01*
X00526288Y0075438D01*
X00523748Y0075184D01*
X00521208D01*
X00523748Y007493D01*
X00521208Y0074676D01*
X00523748D01*
X00526288Y0074422D01*
X0002159Y00746506D02*
X0002413Y00749046D01*
X0002667D01*
X0002413Y00751586D01*
X0002667Y00754126D01*
X0002413D01*
X0002159Y00756666D01*
X0001905Y00754126D01*
X0001651D01*
X0001905Y00751586D01*
X0001651Y00749046D01*
X0001905D01*
X0002159Y00746506D01*
D24*
X00130556Y00458216D02*
G03*
X00130556Y00458216I-0000508J0D01*
G01*
X00155956D02*
G03*
X00155956Y00458216I-0000508J0D01*
G01*
X00181356D02*
G03*
X00181356Y00458216I-0000508J0D01*
G01*
X00206756D02*
G03*
X00206756Y00458216I-0000508J0D01*
G01*
X00232156D02*
G03*
X00232156Y00458216I-0000508J0D01*
G01*
X00257556D02*
G03*
X00257556Y00458216I-0000508J0D01*
G01*
X00282956D02*
G03*
X00282956Y00458216I-0000508J0D01*
G01*
X00308356D02*
G03*
X00308356Y00458216I-0000508J0D01*
G01*
X00333756D02*
G03*
X00333756Y00458216I-0000508J0D01*
G01*
X00359156D02*
G03*
X00359156Y00458216I-0000508J0D01*
G01*
X00384556D02*
G03*
X00384556Y00458216I-0000508J0D01*
G01*
X00409956D02*
G03*
X00409956Y00458216I-0000508J0D01*
G01*
X00435356D02*
G03*
X00435356Y00458216I-0000508J0D01*
G01*
X00460756D02*
G03*
X00460756Y00458216I-0000508J0D01*
G01*
X00486156D02*
G03*
X00486156Y00458216I-0000508J0D01*
G01*
X00130556Y00712216D02*
G03*
X00130556Y00712216I-0000508J0D01*
G01*
X00155956D02*
G03*
X00155956Y00712216I-0000508J0D01*
G01*
X00181356D02*
G03*
X00181356Y00712216I-0000508J0D01*
G01*
X00206756D02*
G03*
X00206756Y00712216I-0000508J0D01*
G01*
X00232156D02*
G03*
X00232156Y00712216I-0000508J0D01*
G01*
X00257556D02*
G03*
X00257556Y00712216I-0000508J0D01*
G01*
X00282956D02*
G03*
X00282956Y00712216I-0000508J0D01*
G01*
X00308356D02*
G03*
X00308356Y00712216I-0000508J0D01*
G01*
X00333756D02*
G03*
X00333756Y00712216I-0000508J0D01*
G01*
X00359156D02*
G03*
X00359156Y00712216I-0000508J0D01*
G01*
X00384556D02*
G03*
X00384556Y00712216I-0000508J0D01*
G01*
X00409956D02*
G03*
X00409956Y00712216I-0000508J0D01*
G01*
X00435356D02*
G03*
X00435356Y00712216I-0000508J0D01*
G01*
X00460756D02*
G03*
X00460756Y00712216I-0000508J0D01*
G01*
X00486156D02*
G03*
X00486156Y00712216I-0000508J0D01*
G01*
M02*
