G04*
G04 #@! TF.GenerationSoftware,Altium Limited,Altium Designer,24.1.2 (44)*
G04*
G04 Layer_Color=128*
%FSTAX44Y44*%
%MOMM*%
G71*
G04*
G04 #@! TF.SameCoordinates,792270A9-2E5B-46A5-852F-00C2283ADDF4*
G04*
G04*
G04 #@! TF.FilePolarity,Positive*
G04*
G01*
G75*
%ADD12C,0.1270*%
D12*
X00039704Y0040767D02*
X00049704D01*
X00044704Y0040267D02*
Y0041267D01*
X00065104Y0040767D02*
X00075104D01*
X00070104Y0040267D02*
Y0041267D01*
X00090504Y0040767D02*
X00100504D01*
X00095504Y0040267D02*
Y0041267D01*
X00115904Y0040767D02*
X00125904D01*
X00120904Y0040267D02*
Y0041267D01*
X00141304Y0040767D02*
X00151304D01*
X00146304Y0040267D02*
Y0041267D01*
X00166704Y0040767D02*
X00176704D01*
X00171704Y0040267D02*
Y0041267D01*
X00192104Y0040767D02*
X00202104D01*
X00197104Y0040267D02*
Y0041267D01*
X00503174Y00212344D02*
X00510794D01*
X00506984Y00208534D02*
Y00216154D01*
X00503174Y00237744D02*
X00510794D01*
X00506984Y00233934D02*
Y00241554D01*
X00503174Y00263144D02*
X00510794D01*
X00506984Y00259334D02*
Y00266954D01*
X00503174Y00288544D02*
X00510794D01*
X00506984Y00284734D02*
Y00292354D01*
X00120376Y00458216D02*
X00130576D01*
X00125476Y00453116D02*
Y00463316D01*
X00145776Y00458216D02*
X00155976D01*
X00150876Y00453116D02*
Y00463316D01*
X00171176Y00458216D02*
X00181376D01*
X00176276Y00453116D02*
Y00463316D01*
X00196576Y00458216D02*
X00206776D01*
X00201676Y00453116D02*
Y00463316D01*
X00221976Y00458216D02*
X00232176D01*
X00227076Y00453116D02*
Y00463316D01*
X00247376Y00458216D02*
X00257576D01*
X00252476Y00453116D02*
Y00463316D01*
X00272776Y00458216D02*
X00282976D01*
X00277876Y00453116D02*
Y00463316D01*
X00298176Y00458216D02*
X00308376D01*
X00303276Y00453116D02*
Y00463316D01*
X00323576Y00458216D02*
X00333776D01*
X00328676Y00453116D02*
Y00463316D01*
X00348976Y00458216D02*
X00359176D01*
X00354076Y00453116D02*
Y00463316D01*
X00374376Y00458216D02*
X00384576D01*
X00379476Y00453116D02*
Y00463316D01*
X00399776Y00458216D02*
X00409976D01*
X00404876Y00453116D02*
Y00463316D01*
X00425176Y00458216D02*
X00435376D01*
X00430276Y00453116D02*
Y00463316D01*
X00450576Y00458216D02*
X00460776D01*
X00455676Y00453116D02*
Y00463316D01*
X00475976Y00458216D02*
X00486176D01*
X00481076Y00453116D02*
Y00463316D01*
X00120376Y00712216D02*
X00130576D01*
X00125476Y00707116D02*
Y00717316D01*
X00145776Y00712216D02*
X00155976D01*
X00150876Y00707116D02*
Y00717316D01*
X00171176Y00712216D02*
X00181376D01*
X00176276Y00707116D02*
Y00717316D01*
X00196576Y00712216D02*
X00206776D01*
X00201676Y00707116D02*
Y00717316D01*
X00221976Y00712216D02*
X00232176D01*
X00227076Y00707116D02*
Y00717316D01*
X00247376Y00712216D02*
X00257576D01*
X00252476Y00707116D02*
Y00717316D01*
X00272776Y00712216D02*
X00282976D01*
X00277876Y00707116D02*
Y00717316D01*
X00298176Y00712216D02*
X00308376D01*
X00303276Y00707116D02*
Y00717316D01*
X00323576Y00712216D02*
X00333776D01*
X00328676Y00707116D02*
Y00717316D01*
X00348976Y00712216D02*
X00359176D01*
X00354076Y00707116D02*
Y00717316D01*
X00374376Y00712216D02*
X00384576D01*
X00379476Y00707116D02*
Y00717316D01*
X00399776Y00712216D02*
X00409976D01*
X00404876Y00707116D02*
Y00717316D01*
X00425176Y00712216D02*
X00435376D01*
X00430276Y00707116D02*
Y00717316D01*
X00450576Y00712216D02*
X00460776D01*
X00455676Y00707116D02*
Y00717316D01*
X00475976Y00712216D02*
X00486176D01*
X00481076Y00707116D02*
Y00717316D01*
X00500376Y00462416D02*
X00530376D01*
X00515376Y00447416D02*
Y00477416D01*
X00500376Y00707516D02*
X00530376D01*
X00515376Y00692516D02*
Y00722516D01*
X00030876Y00707516D02*
X00060876D01*
X00045876Y00692516D02*
Y00722516D01*
X00030876Y00462416D02*
X00060876D01*
X00045876Y00447416D02*
Y00477416D01*
X0051078Y000508D02*
X0054078D01*
X0052578Y000358D02*
Y000658D01*
X0000659Y000508D02*
X0003659D01*
X0002159Y000358D02*
Y000658D01*
X00511288Y007493D02*
X00541288D01*
X00526288Y007343D02*
Y007643D01*
X0000659Y00751586D02*
X0003659D01*
X0002159Y00736586D02*
Y00766586D01*
M02*
