G04*
G04 #@! TF.GenerationSoftware,Altium Limited,Altium Designer,24.1.2 (44)*
G04*
G04 Layer_Physical_Order=1*
G04 Layer_Color=255*
%FSTAX44Y44*%
%MOMM*%
G71*
G04*
G04 #@! TF.SameCoordinates,792270A9-2E5B-46A5-852F-00C2283ADDF4*
G04*
G04*
G04 #@! TF.FilePolarity,Positive*
G04*
G01*
G75*
%ADD18C,2.0000*%
%ADD19R,2.0000X2.0000*%
%ADD20C,2.0000*%
%ADD21C,1.5240*%
%ADD22R,2.0000X2.0000*%
%ADD23C,3.0000*%
D18*
X00262128Y00343916D02*
X00277876Y00359664D01*
Y00458216D01*
X00160528Y00343916D02*
X00262128D01*
X00139701Y00432943D02*
X00237203D01*
X00252476Y00448216D01*
Y00458216D01*
X00015494Y00245364D02*
Y00377984D01*
Y00245364D02*
X0009652Y00164338D01*
X00532638Y00176054D02*
Y00276828D01*
X00520922Y00164338D02*
X00532638Y00176054D01*
X0009652Y00164338D02*
X00520922D01*
X00506984Y00288544D02*
X00520922D01*
X00532638Y00276828D01*
X00467392Y00237744D02*
X00506984D01*
X00455676Y0024946D02*
X00467392Y00237744D01*
X00455676Y0024946D02*
Y00458216D01*
X00389382Y00212344D02*
X00506984D01*
X00379476Y0022225D02*
X00389382Y00212344D01*
X00379476Y0022225D02*
Y00458216D01*
X00146304Y0035814D02*
X00160528Y00343916D01*
X00146304Y0035814D02*
Y0040767D01*
X00058388Y00366268D02*
X00070104Y00377984D01*
X0002721Y00366268D02*
X00058388D01*
X00070104Y00377984D02*
Y0040767D01*
X00120904D02*
Y00414146D01*
X00139701Y00432943D01*
X00015494Y00377984D02*
Y00514858D01*
Y00377984D02*
X0002721Y00366268D01*
X0011376Y00535686D02*
X00125476Y0052397D01*
X00036322Y00535686D02*
X0011376D01*
X00125476Y00458216D02*
Y0052397D01*
X00015494Y00514858D02*
X00036322Y00535686D01*
D19*
X00044704Y0040767D02*
D03*
D20*
X00070104D02*
D03*
X00095504D02*
D03*
X00120904D02*
D03*
X00146304D02*
D03*
X00171704D02*
D03*
X00197104D02*
D03*
X00150876Y00458216D02*
D03*
X00176276D02*
D03*
X00201676D02*
D03*
X00227076D02*
D03*
X00252476D02*
D03*
X00277876D02*
D03*
X00303276D02*
D03*
X00328676D02*
D03*
X00354076D02*
D03*
X00379476D02*
D03*
X00404876D02*
D03*
X00430276D02*
D03*
X00455676D02*
D03*
X00481076D02*
D03*
X00125476Y00712216D02*
D03*
X00150876D02*
D03*
X00176276D02*
D03*
X00201676D02*
D03*
X00227076D02*
D03*
X00252476D02*
D03*
X00277876D02*
D03*
X00303276D02*
D03*
X00328676D02*
D03*
X00354076D02*
D03*
X00379476D02*
D03*
X00404876D02*
D03*
X00430276D02*
D03*
X00455676D02*
D03*
X00481076D02*
D03*
D21*
X00506984Y00212344D02*
D03*
Y00237744D02*
D03*
Y00263144D02*
D03*
Y00288544D02*
D03*
D22*
X00125476Y00458216D02*
D03*
D23*
X00515376Y00462416D02*
D03*
Y00707516D02*
D03*
X00045876D02*
D03*
Y00462416D02*
D03*
X0052578Y000508D02*
D03*
X0002159D02*
D03*
X00526288Y007493D02*
D03*
X0002159Y00751586D02*
D03*
M02*
