G04*
G04 #@! TF.GenerationSoftware,Altium Limited,Altium Designer,24.1.2 (44)*
G04*
G04 Layer_Color=2752767*
%FSLAX25Y25*%
%MOIN*%
G70*
G04*
G04 #@! TF.SameCoordinates,B80CEBF1-44DA-4489-8162-E782690EAD12*
G04*
G04*
G04 #@! TF.FilePolarity,Positive*
G04*
G01*
G75*
%ADD11C,0.00500*%
%ADD31C,0.00667*%
D11*
X621000Y280000D02*
Y284000D01*
X625000D01*
Y280000D01*
X621000D01*
X631000D02*
Y284000D01*
X635000D01*
Y280000D01*
X631000D01*
X641000D02*
Y284000D01*
X645000D01*
Y280000D01*
X641000D01*
X651000D02*
Y284000D01*
X655000D01*
Y280000D01*
X651000D01*
X540021Y377950D02*
X538021Y381950D01*
X542021D01*
X540021Y377950D01*
X530000Y378000D02*
X528000Y382000D01*
X532000D01*
X530000Y378000D01*
X520000D02*
X518000Y382000D01*
X522000D01*
X520000Y378000D01*
X694000Y116000D02*
X695000Y118000D01*
X694000Y120000D01*
X696000Y119000D01*
X698000Y120000D01*
X697000Y118000D01*
X698000Y116000D01*
X696000Y117000D01*
X694000Y116000D01*
X426000D02*
X427000Y118000D01*
X426000Y120000D01*
X428000Y119000D01*
X430000Y120000D01*
X429000Y118000D01*
X430000Y116000D01*
X428000Y117000D01*
X426000Y116000D01*
X694000Y391000D02*
X695000Y393000D01*
X694000Y395000D01*
X696000Y394000D01*
X698000Y395000D01*
X697000Y393000D01*
X698000Y391000D01*
X696000Y392000D01*
X694000Y391000D01*
X426000D02*
X427000Y393000D01*
X426000Y395000D01*
X428000Y394000D01*
X430000Y395000D01*
X429000Y393000D01*
X430000Y391000D01*
X428000Y392000D01*
X426000Y391000D01*
D31*
X442067Y199079D02*
G03*
X442067Y199079I-2000J0D01*
G01*
Y189236D02*
G03*
X442067Y189236I-2000J0D01*
G01*
Y208921D02*
G03*
X442067Y208921I-2000J0D01*
G01*
Y218764D02*
G03*
X442067Y218764I-2000J0D01*
G01*
X438500Y273843D02*
G03*
X438500Y273843I-2000J0D01*
G01*
Y264000D02*
G03*
X438500Y264000I-2000J0D01*
G01*
X596000Y250000D02*
G03*
X596000Y250000I-2000J0D01*
G01*
X606000D02*
G03*
X606000Y250000I-2000J0D01*
G01*
X616000D02*
G03*
X616000Y250000I-2000J0D01*
G01*
X626000D02*
G03*
X626000Y250000I-2000J0D01*
G01*
X636000D02*
G03*
X636000Y250000I-2000J0D01*
G01*
X646000D02*
G03*
X646000Y250000I-2000J0D01*
G01*
X656000D02*
G03*
X656000Y250000I-2000J0D01*
G01*
X558500Y184500D02*
G03*
X558500Y184500I-2000J0D01*
G01*
Y194500D02*
G03*
X558500Y194500I-2000J0D01*
G01*
Y204500D02*
G03*
X558500Y204500I-2000J0D01*
G01*
Y214500D02*
G03*
X558500Y214500I-2000J0D01*
G01*
Y234500D02*
G03*
X558500Y234500I-2000J0D01*
G01*
Y244500D02*
G03*
X558500Y244500I-2000J0D01*
G01*
Y254500D02*
G03*
X558500Y254500I-2000J0D01*
G01*
Y224500D02*
G03*
X558500Y224500I-2000J0D01*
G01*
Y174500D02*
G03*
X558500Y174500I-2000J0D01*
G01*
Y134500D02*
G03*
X558500Y134500I-2000J0D01*
G01*
Y144500D02*
G03*
X558500Y144500I-2000J0D01*
G01*
Y154500D02*
G03*
X558500Y154500I-2000J0D01*
G01*
Y124400D02*
G03*
X558500Y124400I-2000J0D01*
G01*
Y164500D02*
G03*
X558500Y164500I-2000J0D01*
G01*
X498600Y264457D02*
G03*
X498600Y264457I-2000J0D01*
G01*
Y274457D02*
G03*
X498600Y274457I-2000J0D01*
G01*
Y244457D02*
G03*
X498600Y244457I-2000J0D01*
G01*
Y284457D02*
G03*
X498600Y284457I-2000J0D01*
G01*
Y294457D02*
G03*
X498600Y294457I-2000J0D01*
G01*
Y304457D02*
G03*
X498600Y304457I-2000J0D01*
G01*
Y314457D02*
G03*
X498600Y314457I-2000J0D01*
G01*
Y254457D02*
G03*
X498600Y254457I-2000J0D01*
G01*
Y234457D02*
G03*
X498600Y234457I-2000J0D01*
G01*
Y194457D02*
G03*
X498600Y194457I-2000J0D01*
G01*
Y224457D02*
G03*
X498600Y224457I-2000J0D01*
G01*
Y214457D02*
G03*
X498600Y214457I-2000J0D01*
G01*
Y204457D02*
G03*
X498600Y204457I-2000J0D01*
G01*
Y184457D02*
G03*
X498600Y184457I-2000J0D01*
G01*
Y174457D02*
G03*
X498600Y174457I-2000J0D01*
G01*
Y134457D02*
G03*
X498600Y134457I-2000J0D01*
G01*
Y144457D02*
G03*
X498600Y144457I-2000J0D01*
G01*
Y154457D02*
G03*
X498600Y154457I-2000J0D01*
G01*
Y124457D02*
G03*
X498600Y124457I-2000J0D01*
G01*
Y164457D02*
G03*
X498600Y164457I-2000J0D01*
G01*
X558500Y264500D02*
G03*
X558500Y264500I-2000J0D01*
G01*
Y304500D02*
G03*
X558500Y304500I-2000J0D01*
G01*
Y274500D02*
G03*
X558500Y274500I-2000J0D01*
G01*
Y314500D02*
G03*
X558500Y314500I-2000J0D01*
G01*
Y294500D02*
G03*
X558500Y294500I-2000J0D01*
G01*
Y284500D02*
G03*
X558500Y284500I-2000J0D01*
G01*
X440500Y322315D02*
G03*
X440500Y322315I-2000J0D01*
G01*
Y332157D02*
G03*
X440500Y332157I-2000J0D01*
G01*
Y351842D02*
G03*
X440500Y351842I-2000J0D01*
G01*
Y342000D02*
G03*
X440500Y342000I-2000J0D01*
G01*
M02*
