M48
;Layer_Color=9474304
;FILE_FORMAT=2:4
INCH,TZ
;TYPE=PLATED
T01F00S00C0.0300
T02F00S00C0.0350
T03F00S00C0.0394
T04F00S00C0.1181
%
T01
X63300Y28200
X64300
X65300
X62300
T02
X52000Y38000
X53000
X54002Y37995
T03
X49660Y12446
Y13446
Y14446
Y15446
X55650Y15450
Y14450
Y13450
Y12440
X63400Y25000
X64400
X65400
X62400
X61400
X60400
X59400
X55650Y25450
Y24450
Y23450
Y22450
Y21450
Y20450
Y19450
Y18450
Y17450
Y16450
X49660Y16446
Y17446
Y18446
Y19446
Y20446
Y21446
Y22446
Y23446
Y24446
Y25446
Y26446
Y27446
Y28446
Y29446
Y30446
X55650Y30450
Y29450
Y28450
Y27450
Y26450
X43650Y26400
Y27384
X44007Y21876
Y20892
Y19908
Y18924
X43850Y32232
Y33216
Y34200
Y35184
X49660Y31446
X55650Y31450
T04
X42800Y11800
X69600
X42800Y39300
X69600
M30
