G04*
G04 #@! TF.GenerationSoftware,Altium Limited,Altium Designer,24.1.2 (44)*
G04*
G04 Layer_Color=128*
%FSLAX25Y25*%
%MOIN*%
G70*
G04*
G04 #@! TF.SameCoordinates,B80CEBF1-44DA-4489-8162-E782690EAD12*
G04*
G04*
G04 #@! TF.FilePolarity,Positive*
G04*
G01*
G75*
%ADD11C,0.00500*%
D11*
X438098Y199079D02*
X442035D01*
X440067Y197110D02*
Y201047D01*
X438098Y189236D02*
X442035D01*
X440067Y187268D02*
Y191205D01*
X438098Y208921D02*
X442035D01*
X440067Y206953D02*
Y210890D01*
X438098Y218764D02*
X442035D01*
X440067Y216795D02*
Y220732D01*
X434531Y273843D02*
X438469D01*
X436500Y271874D02*
Y275811D01*
X434531Y264000D02*
X438469D01*
X436500Y262032D02*
Y265968D01*
X592031Y250000D02*
X595968D01*
X594000Y248031D02*
Y251969D01*
X602032Y250000D02*
X605969D01*
X604000Y248031D02*
Y251969D01*
X612032Y250000D02*
X615969D01*
X614000Y248031D02*
Y251969D01*
X622031Y250000D02*
X625969D01*
X624000Y248031D02*
Y251969D01*
X632031Y250000D02*
X635968D01*
X634000Y248031D02*
Y251969D01*
X642031Y250000D02*
X645968D01*
X644000Y248031D02*
Y251969D01*
X652032Y250000D02*
X655969D01*
X654000Y248031D02*
Y251969D01*
X621500Y282000D02*
X624500D01*
X623000Y280500D02*
Y283500D01*
X631500Y282000D02*
X634500D01*
X633000Y280500D02*
Y283500D01*
X641500Y282000D02*
X644500D01*
X643000Y280500D02*
Y283500D01*
X651500Y282000D02*
X654500D01*
X653000Y280500D02*
Y283500D01*
X538271Y379950D02*
X541771D01*
X540021Y378200D02*
Y381700D01*
X528250Y380000D02*
X531750D01*
X530000Y378250D02*
Y381750D01*
X518250Y380000D02*
X521750D01*
X520000Y378250D02*
Y381750D01*
X554531Y184500D02*
X558468D01*
X556500Y182531D02*
Y186469D01*
X554531Y194500D02*
X558468D01*
X556500Y192532D02*
Y196468D01*
X554531Y204500D02*
X558468D01*
X556500Y202532D02*
Y206469D01*
X554531Y214500D02*
X558468D01*
X556500Y212531D02*
Y216469D01*
X554531Y234500D02*
X558468D01*
X556500Y232531D02*
Y236469D01*
X554531Y244500D02*
X558468D01*
X556500Y242531D02*
Y246468D01*
X554531Y254500D02*
X558468D01*
X556500Y252532D02*
Y256469D01*
X554531Y224500D02*
X558468D01*
X556500Y222532D02*
Y226468D01*
X554531Y174500D02*
X558468D01*
X556500Y172531D02*
Y176469D01*
X554531Y134500D02*
X558468D01*
X556500Y132531D02*
Y136469D01*
X554531Y144500D02*
X558468D01*
X556500Y142532D02*
Y146468D01*
X554531Y154500D02*
X558468D01*
X556500Y152532D02*
Y156468D01*
X554531Y124400D02*
X558468D01*
X556500Y122432D02*
Y126368D01*
X554531Y164500D02*
X558468D01*
X556500Y162531D02*
Y166469D01*
X494631Y264457D02*
X498568D01*
X496600Y262489D02*
Y266426D01*
X494631Y274457D02*
X498568D01*
X496600Y272489D02*
Y276426D01*
X494631Y244457D02*
X498568D01*
X496600Y242489D02*
Y246426D01*
X494631Y284457D02*
X498568D01*
X496600Y282489D02*
Y286426D01*
X494631Y294457D02*
X498568D01*
X496600Y292489D02*
Y296426D01*
X494631Y304457D02*
X498568D01*
X496600Y302489D02*
Y306426D01*
X494631Y314457D02*
X498568D01*
X496600Y312489D02*
Y316426D01*
X494631Y254457D02*
X498568D01*
X496600Y252489D02*
Y256426D01*
X494631Y234457D02*
X498568D01*
X496600Y232489D02*
Y236426D01*
X494631Y194457D02*
X498568D01*
X496600Y192489D02*
Y196426D01*
X494631Y224457D02*
X498568D01*
X496600Y222489D02*
Y226426D01*
X494631Y214457D02*
X498568D01*
X496600Y212489D02*
Y216426D01*
X494631Y204457D02*
X498568D01*
X496600Y202489D02*
Y206426D01*
X494631Y184457D02*
X498568D01*
X496600Y182489D02*
Y186426D01*
X494631Y174457D02*
X498568D01*
X496600Y172489D02*
Y176426D01*
X494631Y134457D02*
X498568D01*
X496600Y132489D02*
Y136426D01*
X494631Y144457D02*
X498568D01*
X496600Y142489D02*
Y146426D01*
X494631Y154457D02*
X498568D01*
X496600Y152489D02*
Y156426D01*
X494631Y124457D02*
X498568D01*
X496600Y122489D02*
Y126426D01*
X494631Y164457D02*
X498568D01*
X496600Y162489D02*
Y166426D01*
X554531Y264500D02*
X558468D01*
X556500Y262531D02*
Y266469D01*
X554531Y304500D02*
X558468D01*
X556500Y302532D02*
Y306469D01*
X554531Y274500D02*
X558468D01*
X556500Y272532D02*
Y276468D01*
X554531Y314500D02*
X558468D01*
X556500Y312531D02*
Y316469D01*
X554531Y294500D02*
X558468D01*
X556500Y292531D02*
Y296468D01*
X554531Y284500D02*
X558468D01*
X556500Y282531D02*
Y286469D01*
X436531Y322315D02*
X440469D01*
X438500Y320346D02*
Y324284D01*
X436531Y332157D02*
X440469D01*
X438500Y330189D02*
Y334126D01*
X436531Y351842D02*
X440469D01*
X438500Y349874D02*
Y353811D01*
X436531Y342000D02*
X440469D01*
X438500Y340032D02*
Y343969D01*
X690095Y118000D02*
X701905D01*
X696000Y112094D02*
Y123906D01*
X422094Y118000D02*
X433906D01*
X428000Y112094D02*
Y123906D01*
X690095Y393000D02*
X701905D01*
X696000Y387094D02*
Y398905D01*
X422094Y393000D02*
X433906D01*
X428000Y387094D02*
Y398905D01*
M02*
