G04*
G04 #@! TF.GenerationSoftware,Altium Limited,Altium Designer,24.1.2 (44)*
G04*
G04 Layer_Physical_Order=2*
G04 Layer_Color=16711680*
%FSLAX25Y25*%
%MOIN*%
G70*
G04*
G04 #@! TF.SameCoordinates,B80CEBF1-44DA-4489-8162-E782690EAD12*
G04*
G04*
G04 #@! TF.FilePolarity,Positive*
G04*
G01*
G75*
%ADD21C,0.03000*%
%ADD22C,0.07874*%
%ADD23R,0.07874X0.07874*%
%ADD24R,0.07874X0.07874*%
%ADD25C,0.06000*%
%ADD26C,0.06299*%
%ADD27O,0.07874X0.07874*%
%ADD28R,0.07874X0.07874*%
%ADD29C,0.11811*%
D21*
X490257Y224457D02*
X496600D01*
X484043Y124457D02*
X496600D01*
X478500Y130000D02*
X484043Y124457D01*
X478500Y130000D02*
Y150803D01*
X549243Y306257D02*
X550000D01*
X551757Y304500D02*
X556500D01*
X550000Y306257D02*
X551757Y304500D01*
X556500D02*
X629500D01*
X520000Y335500D02*
Y380000D01*
Y335500D02*
X549243Y306257D01*
X633000Y278618D02*
Y282000D01*
X625639Y276861D02*
X631243D01*
X633000Y278618D01*
X574000Y282000D02*
X623000D01*
X556500Y264500D02*
X574000Y282000D01*
X519107Y380000D02*
X520000D01*
X516107Y377000D02*
X519107Y380000D01*
X508500Y377000D02*
X516107D01*
X445000Y323000D02*
X446937Y321063D01*
Y320063D02*
Y321063D01*
X439185Y323000D02*
X445000D01*
X438500Y322315D02*
X439185Y323000D01*
X430063Y190994D02*
X431820Y189236D01*
X440067D01*
X488500Y222700D02*
X490257Y224457D01*
X488500Y222500D02*
Y222700D01*
X484764Y218764D02*
X488500Y222500D01*
X491500Y204500D02*
X496557D01*
X486079Y199079D02*
X491500Y204500D01*
X496557D02*
X496600Y204457D01*
X481921Y208921D02*
X487457Y214457D01*
X496600D01*
X495667Y203525D02*
X496600Y204457D01*
X594000Y250000D02*
X604000D01*
Y241000D02*
Y250000D01*
Y241000D02*
X609000Y236000D01*
X651500D01*
X654000Y238500D01*
Y250000D01*
X643000Y268500D02*
Y282000D01*
Y268500D02*
X654000Y257500D01*
Y250000D02*
Y257500D01*
X556500Y174500D02*
X556500D01*
X491610Y275390D02*
X495667D01*
X496600Y274457D01*
X446937Y320063D02*
X491610Y275390D01*
X430063Y190994D02*
Y268972D01*
X431879Y270789D01*
X435181Y273843D02*
X436500D01*
X432127Y270789D02*
X435181Y273843D01*
X431879Y270789D02*
X432127D01*
X438500Y342000D02*
X473500D01*
X508500Y377000D01*
X438500Y322315D02*
X440752Y320063D01*
X432068Y336500D02*
X437568Y342000D01*
X429000Y336500D02*
X432068D01*
X437568Y342000D02*
X438500D01*
X423500Y331000D02*
X429000Y336500D01*
X423500Y286842D02*
Y331000D01*
Y286842D02*
X436500Y273843D01*
X540914Y379950D02*
X544364Y376500D01*
X540021Y379950D02*
X540914D01*
X544364Y376500D02*
X544500D01*
Y372500D02*
Y376500D01*
Y372500D02*
X556500Y360500D01*
Y314500D02*
Y360500D01*
X643000Y282000D02*
Y286000D01*
X644257Y287257D01*
X629500Y304500D02*
X644257Y289743D01*
Y287257D02*
Y289743D01*
X653000Y287000D02*
X654257Y288257D01*
X653000Y282000D02*
Y287000D01*
X654257Y288257D02*
Y290743D01*
X630500Y314500D02*
X654257Y290743D01*
X556500Y314500D02*
X630500D01*
X653000Y281188D02*
Y282000D01*
X568976Y266976D02*
X615755D01*
X556500Y254500D02*
X556500D01*
X568976Y266976D01*
X615755D02*
X625639Y276861D01*
X556500Y264500D02*
X556500D01*
X495667Y223525D02*
X496600Y224457D01*
X440067Y218764D02*
X484764D01*
X440067Y208921D02*
X481921D01*
X440067Y199079D02*
X486079D01*
X496220Y124837D02*
X496600Y124457D01*
X440067Y189236D02*
X478500Y150803D01*
D22*
X440067Y199079D02*
D03*
Y189236D02*
D03*
Y208921D02*
D03*
X436500Y273843D02*
D03*
X594000Y250000D02*
D03*
X604000D02*
D03*
X614000D02*
D03*
X624000D02*
D03*
X634000D02*
D03*
X644000D02*
D03*
X438500Y332157D02*
D03*
Y351842D02*
D03*
Y342000D02*
D03*
D23*
X440067Y218764D02*
D03*
X436500Y264000D02*
D03*
X438500Y322315D02*
D03*
D24*
X654000Y250000D02*
D03*
D25*
X623000Y282000D02*
D03*
X633000D02*
D03*
X643000D02*
D03*
X653000D02*
D03*
D26*
X540021Y379950D02*
D03*
X530000Y380000D02*
D03*
X520000D02*
D03*
D27*
X556500Y184500D02*
D03*
Y194500D02*
D03*
Y204500D02*
D03*
Y214500D02*
D03*
Y234500D02*
D03*
Y244500D02*
D03*
Y254500D02*
D03*
Y224500D02*
D03*
Y174500D02*
D03*
Y134500D02*
D03*
Y144500D02*
D03*
Y154500D02*
D03*
Y164500D02*
D03*
X496600Y264457D02*
D03*
Y274457D02*
D03*
Y244457D02*
D03*
Y284457D02*
D03*
Y294457D02*
D03*
Y304457D02*
D03*
Y314457D02*
D03*
Y254457D02*
D03*
Y234457D02*
D03*
Y194457D02*
D03*
Y224457D02*
D03*
Y214457D02*
D03*
Y204457D02*
D03*
Y184457D02*
D03*
Y174457D02*
D03*
Y134457D02*
D03*
Y144457D02*
D03*
Y154457D02*
D03*
Y124457D02*
D03*
Y164457D02*
D03*
X556500Y264500D02*
D03*
Y304500D02*
D03*
Y274500D02*
D03*
Y314500D02*
D03*
Y294500D02*
D03*
Y284500D02*
D03*
D28*
Y124400D02*
D03*
D29*
X696000Y118000D02*
D03*
X428000D02*
D03*
X696000Y393000D02*
D03*
X428000D02*
D03*
M02*
