G04*
G04 #@! TF.GenerationSoftware,Altium Limited,Altium Designer,24.1.2 (44)*
G04*
G04 Layer_Physical_Order=1*
G04 Layer_Color=255*
%FSLAX25Y25*%
%MOIN*%
G70*
G04*
G04 #@! TF.SameCoordinates,B80CEBF1-44DA-4489-8162-E782690EAD12*
G04*
G04*
G04 #@! TF.FilePolarity,Positive*
G04*
G01*
G75*
%ADD21C,0.03000*%
%ADD22C,0.07874*%
%ADD23R,0.07874X0.07874*%
%ADD24R,0.07874X0.07874*%
%ADD25C,0.06000*%
%ADD26C,0.06299*%
%ADD27O,0.07874X0.07874*%
%ADD28R,0.07874X0.07874*%
%ADD29C,0.11811*%
D21*
X624000Y250000D02*
Y258743D01*
X583000Y261500D02*
X621243D01*
X576500Y255000D02*
X583000Y261500D01*
X574743Y184500D02*
X576500Y186257D01*
Y255000D01*
X556500Y184500D02*
X574743D01*
X621243Y261500D02*
X624000Y258743D01*
X614000Y190500D02*
Y250000D01*
X598000Y174500D02*
X614000Y190500D01*
X556500Y174500D02*
X598000D01*
X653000Y268000D02*
Y282000D01*
X644000Y259000D02*
X653000Y268000D01*
X644000Y250000D02*
Y259000D01*
X555181Y214500D02*
X556500D01*
X551257Y217257D02*
X552424D01*
X551243Y217243D02*
X551257Y217257D01*
X552424D02*
X555181Y214500D01*
X547000Y219000D02*
Y273161D01*
Y219000D02*
X548757Y217243D01*
X551243D01*
X499266Y320894D02*
X547000Y273161D01*
X493934Y320894D02*
X499266D01*
X436500Y264000D02*
X444937D01*
X469435Y288498D01*
X502612Y323205D02*
X522795D01*
X492277Y324894D02*
X500923D01*
X467138Y323205D02*
X490588D01*
X469435Y288498D02*
Y296396D01*
X493934Y320894D01*
X490588Y323205D02*
X492277Y324894D01*
X500923D02*
X502612Y323205D01*
X556500Y284500D02*
X557433Y285433D01*
X562675D02*
X563500Y286257D01*
Y291500D01*
X557433Y285433D02*
X562675D01*
X563500Y291500D02*
X566000Y294000D01*
Y317000D01*
X530000Y353000D02*
X566000Y317000D01*
X530000Y353000D02*
Y380000D01*
X522795Y323205D02*
X550567Y295433D01*
X555567D02*
X556500Y294500D01*
X550567Y295433D02*
X555567D01*
X438500Y351842D02*
X467138Y323205D01*
D22*
X440067Y199079D02*
D03*
Y189236D02*
D03*
Y208921D02*
D03*
X436500Y273843D02*
D03*
X594000Y250000D02*
D03*
X604000D02*
D03*
X614000D02*
D03*
X624000D02*
D03*
X634000D02*
D03*
X644000D02*
D03*
X438500Y332157D02*
D03*
Y351842D02*
D03*
Y342000D02*
D03*
D23*
X440067Y218764D02*
D03*
X436500Y264000D02*
D03*
X438500Y322315D02*
D03*
D24*
X654000Y250000D02*
D03*
D25*
X623000Y282000D02*
D03*
X633000D02*
D03*
X643000D02*
D03*
X653000D02*
D03*
D26*
X540021Y379950D02*
D03*
X530000Y380000D02*
D03*
X520000D02*
D03*
D27*
X556500Y184500D02*
D03*
Y194500D02*
D03*
Y204500D02*
D03*
Y214500D02*
D03*
Y234500D02*
D03*
Y244500D02*
D03*
Y254500D02*
D03*
Y224500D02*
D03*
Y174500D02*
D03*
Y134500D02*
D03*
Y144500D02*
D03*
Y154500D02*
D03*
Y164500D02*
D03*
X496600Y264457D02*
D03*
Y274457D02*
D03*
Y244457D02*
D03*
Y284457D02*
D03*
Y294457D02*
D03*
Y304457D02*
D03*
Y314457D02*
D03*
Y254457D02*
D03*
Y234457D02*
D03*
Y194457D02*
D03*
Y224457D02*
D03*
Y214457D02*
D03*
Y204457D02*
D03*
Y184457D02*
D03*
Y174457D02*
D03*
Y134457D02*
D03*
Y144457D02*
D03*
Y154457D02*
D03*
Y124457D02*
D03*
Y164457D02*
D03*
X556500Y264500D02*
D03*
Y304500D02*
D03*
Y274500D02*
D03*
Y314500D02*
D03*
Y294500D02*
D03*
Y284500D02*
D03*
D28*
Y124400D02*
D03*
D29*
X696000Y118000D02*
D03*
X428000D02*
D03*
X696000Y393000D02*
D03*
X428000D02*
D03*
M02*
